PathFileType	4	(X/Y/Z)	Patient4_TMGait_0pt3_01_right_10.trc.trc
DataRate	CameraRate	NumFrames	NumMarkers	Units	OrigDataRate	OrigDataStartFrame	OrigNumFrames
51.660516605166	51.660516605166	7	33	mm	51.660516605166	89	       141
Frame#	Time	Sacral			L.Shoulder			Chest			R.Shoulder			Neck			R.ASIS			L.ASIS			R.Thigh.Superior			R.Thigh.Lateral			R.Thigh.Inferior			R.Patella			L.Thigh.Superior			L.Thigh.Lateral			L.Thigh.Inferior			L.Patella			L.Shank.Superior			L.Shank.Lateral			L.Shank.Inferior			R.Shank.Superior			R.Shank.Lateral			R.Shank.Inferior			R.Heel			R.Midfoot.Superior			R.Midfoot.Lateral			R.Toe			L.Heel			L.Midfoot.Lateral			L.Midfoot.Superior			L.Toe			L.Elbow			L.Wrist			R.Elbow			R.Wrist			
		X1	Y1	Z1	X2	Y2	Z2	X3	Y3	Z3	X4	Y4	Z4	X5	Y5	Z5	X6	Y6	Z6	X7	Y7	Z7	X8	Y8	Z8	X9	Y9	Z9	X10	Y10	Z10	X11	Y11	Z11	X12	Y12	Z12	X13	Y13	Z13	X14	Y14	Z14	X15	Y15	Z15	X16	Y16	Z16	X17	Y17	Z17	X18	Y18	Z18	X19	Y19	Z19	X20	Y20	Z20	X21	Y21	Z21	X22	Y22	Z22	X23	Y23	Z23	X24	Y24	Z24	X25	Y25	Z25	X26	Y26	Z26	X27	Y27	Z27	X28	Y28	Z28	X29	Y29	Z29	X30	Y30	Z30	X31	Y31	Z31	X32	Y32	Z32	X33	Y33	Z33	

89	19.143428571429	629.429398975406	1004.493578919704	493.559014226385	764.117784640639	1429.066136608423	285.024462251392	908.214120631601	1355.205862626668	407.961163418574	879.506863500813	1429.462953665286	597.572059356955	792.715593190742	1487.483523492323	444.941668122063	873.141937760917	925.568621591438	560.050429653874	807.929477161962	957.260823945272	295.546683916692	863.461473579372	714.856786685171	540.786762016636	766.715163770295	621.468536526246	615.546767628469	821.847856702408	552.992247736065	533.020938436417	799.824879459773	459.504129594196	547.911711917754	882.532009157947	761.733053241753	325.991822195634	811.547015429154	632.883840480474	266.035850541272	912.364590083482	565.894947005149	320.428575108812	924.017961374375	490.869634367912	323.342538959887	890.121227540853	416.588933724124	317.174223712738	792.606464490155	309.883628441323	266.333060165440	838.136305281351	192.718820783571	328.622466456305	738.453544572107	385.782688559960	561.156712053898	635.918931954072	317.419618587941	629.976586268068	641.130779119147	210.393431761983	574.069599840563	460.237519987304	83.684901328678	549.787704905793	636.345342373224	103.442953319047	592.997209791525	537.294039855813	58.531904341012	626.824712218793	741.050199569295	35.948878178260	626.551423539167	701.501418169770	41.743463099779	364.236282883156	773.566974601124	38.224033943431	282.472708495949	859.730695826367	96.434188049942	308.392513491954	985.145985138846	39.483502699502	273.941356046494	625.803323651001	1107.569735128471	181.980382316214	720.846986468940	869.038248782734	125.072542276814	1051.189493378344	1118.900679639860	620.861498915488	1234.856186241912	1157.004589607481	448.843282287871	
90	19.162785714286	629.249152512665	1006.214372096220	487.323698829324	766.770732105546	1430.583911832153	280.069259300725	909.563169645417	1356.230478370112	404.173665391833	879.508077149663	1430.464508660629	593.606130995082	794.107635294853	1488.753890395109	440.358327969192	872.316332925938	926.647436189102	555.582020714494	808.879253582418	958.066260420459	290.656324712832	862.095687369245	715.947396388270	537.376418416165	764.771919576603	623.346914246092	612.356188779094	820.266430802568	554.128355229262	530.593186594894	798.073554060355	460.551622069734	546.185475851653	881.677963026447	761.436499391635	321.871209553135	809.223061433310	632.856338885452	262.873469682006	909.109388219886	565.155997105107	317.871207977271	920.056689432747	490.267289693465	321.472206382553	885.810943943845	416.217606964897	315.524090005266	787.950497426539	309.622064625612	265.180652023810	832.993599706764	192.648537591574	328.175351319041	736.223811485322	387.339491504762	559.785424865727	632.862741479966	320.180262872293	628.579733672355	637.877688819092	212.507917866336	573.667006225331	455.936060548555	87.710632653380	549.886839494787	632.458348300814	104.191833401211	593.282628636503	532.508041597320	60.973488545603	626.836682178056	735.470558588644	35.875711122354	626.475581518523	695.771370378399	41.960394302249	364.309501835152	767.807999406721	38.366135236515	282.534351065824	854.064207043322	96.407587469569	308.402834457845	979.352640150429	39.312954873909	273.878390793487	632.123768363830	1109.078347905644	171.559332319808	734.612518212670	874.008996084323	113.421100081132	1048.820020977928	1118.129287810895	620.459515313987	1238.160277667085	1148.873054481214	452.726213271710	
91	19.182142857143	628.897222806662	1007.819898582638	481.047622464596	769.406431577892	1432.062265809605	275.243655546252	910.753361395218	1357.221909712059	400.650745437524	879.158345911729	1431.417742087905	589.865898604033	795.349859096772	1489.965595609386	435.926737536833	871.326599723474	927.744307790579	551.251595013109	809.827414475424	958.808423607826	285.868434572899	860.971821825904	717.065843528009	533.975779631024	763.244230297306	625.058910164417	609.104853514290	819.257270981792	555.211329616819	528.087965510464	797.033922937778	461.397053733256	544.421732563322	880.811326013622	761.068481148109	317.825695119877	806.902894111119	632.804824006485	259.732739994486	905.803021726681	564.395599214957	315.363956569553	916.001697903272	489.659881361272	319.645082681048	881.421382111437	415.848599142579	313.872600977699	783.216921504847	309.365585944765	263.998815243484	827.797017244851	192.576200952801	327.688859740449	734.589172131850	388.721931820622	558.338490363011	630.313068026044	322.918801683085	627.098568558701	634.992208562643	214.608070306006	573.208481070768	451.847957726115	92.014858099912	549.945258931422	628.742819802730	104.950610282737	593.513277112297	527.855989414513	63.639170565209	626.824693079543	729.901233808826	35.788689122596	626.408266373220	690.002055283710	42.153992417628	364.345559456653	762.019511783546	38.475523641154	282.567161155205	848.353096236716	96.389422059435	308.383360070385	973.532912294070	39.176247103240	273.818491213107	638.923366448071	1110.587334733867	160.948295032772	748.539618180398	879.110762855382	101.795497119725	1045.459148264726	1116.967532435922	620.699268216796	1240.765373938688	1139.116301181665	458.069450074842	
92	19.201500000000	628.361326435950	1009.270470618227	474.752195230669	772.012654141808	1433.458470147128	270.556753271317	911.776294943034	1358.137735325766	397.389477357221	878.458217100047	1432.286764512427	586.344466469069	796.431515526503	1491.079781944180	431.650383682976	870.163938173158	928.829575565048	547.078306160097	810.766331356074	959.464786229893	281.206980024082	860.183679997357	718.184247321625	530.583215052078	762.283280081064	626.529795412295	605.791789504185	818.991971285262	556.192236340769	525.487598620049	796.892713363299	461.969384298463	542.609428062297	879.945986512753	760.617646902809	313.893082271852	804.636405364612	632.710105825213	256.637611291380	902.495289394078	563.608199857729	312.951771713267	911.915808923463	489.034773073940	317.897870004238	877.005299049040	415.464940758549	312.249148082092	778.455573555554	309.110889945797	262.798889496299	822.569019076406	192.492738411409	327.178311507915	733.705562953218	389.877222126139	556.799143551999	628.416286382097	325.630727569911	625.525854091978	632.554258908549	216.701038472547	572.675503316521	448.029143597279	96.716837191447	549.937815088643	625.220304873823	105.764752508586	593.674239905370	523.366765894161	66.631796578637	626.773252715550	724.335706813505	35.664431818709	626.359827919794	684.198490289532	42.320603917656	364.341034078323	756.207857290770	38.552549323871	282.570257045959	842.603976693196	96.380109618852	308.337453357413	967.695907030889	39.066697339064	273.761866739296	646.195019746142	1112.062115855438	150.247167784677	762.712324899726	884.325654943191	90.286872696051	1041.024147295003	1115.379127385732	621.526421986162	1242.383847678573	1127.618430062474	464.863881825826	
93	19.220857142857	627.634700727758	1010.521341584082	468.462330153836	774.578746950531	1434.724521343998	266.019510713940	912.626084533955	1358.929387588250	394.387254336254	877.412224980091	1433.028733599033	583.037067583549	797.346447727084	1492.053982167547	427.534213564666	868.818625369230	929.865818416536	543.079458578829	811.685278763884	960.008708197999	276.695273547418	859.814316496498	719.276188158500	527.194815554249	762.032280247223	627.693325667176	602.418368122125	819.626925641015	557.029646081636	522.774651015344	797.817187411624	462.214029283525	540.735082370547	879.094604151441	760.070726991214	310.102201245057	802.467484238964	632.547564232316	253.609647740726	899.239780058630	562.784386976975	310.667304779937	907.868384151466	488.374598763672	316.255944670086	872.620171099689	415.044081658771	310.677750145341	773.716151049190	308.850359685645	261.593242714448	817.332351500885	192.385785441142	326.657454715710	733.715035902823	390.767898065637	555.149134155184	627.308724781290	328.325374043916	623.846110909340	630.639110781718	218.809512892527	572.041015317184	444.547217929087	101.953405730391	549.816596627078	621.912818457371	106.697650200110	593.744085728390	519.072096174988	70.075407478757	626.649934212623	718.760454830410	35.479963061236	626.339565466208	678.366474276651	42.456454296459	364.295484101343	750.379273244421	38.597347771652	282.544190797597	836.823493619918	96.377800665983	308.269475427601	961.849625712914	38.978267719473	273.709244073832	653.932345745084	1113.465095889537	139.554157525420	777.224069702927	889.647384663395	78.995232570015	1035.459712148179	1113.339943951082	622.873930370860	1242.716609900769	1114.318308287429	473.074259992125	
94	19.240214285714	626.718988011447	1011.522887585092	462.208153326160	777.093370331019	1435.808625731203	261.645921870078	913.297806974844	1359.544545600724	391.643113778976	876.027241415742	1433.594475380004	579.942551285920	798.092203248199	1492.843022180792	423.586280798932	867.281086526610	930.808445721821	539.268062116753	812.570544244860	960.409059321979	272.354897343323	859.927282897009	720.318401333848	523.804932367532	762.611538291268	628.498525481110	598.987911769790	821.285847043262	557.694661349306	519.932145644695	799.936705667653	462.099835702077	538.781305161180	878.271201617174	759.413980820269	306.473995949644	800.437628049802	632.288870754788	250.667171878979	896.096521041678	561.911415742829	308.530889432652	903.937154621929	487.657597567605	314.733039921068	868.330230791470	414.558181243874	309.176539048298	769.050347641718	308.572533724770	260.394228585879	812.110294183309	192.239604978551	326.137863832826	734.730231981333	391.375726951693	553.367610982757	627.101131227714	331.026170209273	622.031388990139	629.310496586149	220.970639824997	571.267650416584	441.478391795039	107.862633527910	549.505752684482	618.842171589261	107.827299845809	593.691889418711	515.005899291855	74.104312664468	626.401065567563	713.156876974684	35.217041363218	626.353412559167	672.512151187612	42.558264520588	364.211161051704	744.539367143489	38.610174853151	282.490586248090	831.017962104391	96.378896411038	308.184313959369	956.000509067866	38.905766764747	273.661265029404	662.132038932871	1114.754774191909	128.964489224546	792.166737511908	895.075678861197	68.026828164365	1028.742214311444	1110.838946973006	624.664238560689	1241.463646468074	1099.215900532927	482.634609207226	
95	19.259571428571	625.625559009595	1012.223806398666	456.025369073700	779.543594878853	1436.658599420021	257.453351901925	913.786911907009	1359.931184583141	389.158504271169	874.311862375082	1433.931373265643	577.063709496083	798.669483362247	1493.401697312611	419.818608474279	865.543009883971	931.607886890404	535.651230384347	813.406703772245	960.631843218356	268.204685023783	860.559295978630	721.293360212653	520.408355002032	764.104866664458	628.916233569074	595.506067924031	824.045611095799	558.175858485782	516.945694217411	803.328628902009	461.624334680557	536.727603323876	877.492149878170	758.634499071744	303.024420125889	798.586881417753	631.904552906914	247.825680400282	893.130755636124	560.974143104363	306.552900672523	900.205452508741	486.858765140680	313.333760284966	864.204489230179	413.975904366692	307.758707678748	764.511339498300	308.263271510962	259.213748875652	806.925838857253	192.035973752185	325.629055452368	736.822516197141	391.704402021239	551.431824138882	627.865587794254	333.769183152974	620.039163062380	628.615661127472	223.232727833348	570.307716026192	438.903218984562	114.563116917023	548.899727247255	616.031192550147	109.239970948177	593.474859339919	511.204700558776	78.847336790846	625.949628992603	707.507492809970	34.867251433345	626.401107210181	666.641627101487	42.623757890050	364.092408543272	738.692883784332	38.591627595214	282.411792045441	825.193153443112	96.378693342410	308.086988668207	950.153288836009	38.844950692741	273.618085719673	670.794390159060	1115.887364575512	118.570342471257	807.620010146475	900.612216544325	57.491719147281	1020.881412695885	1107.879302286384	626.812954672282	1238.335086740129	1082.374232037808	493.444711774876	
